<?xml version="1.0" encoding="utf-8"?>
<!-- Generator: Adobe Illustrator 15.1.0, SVG Export Plug-In . SVG Version: 6.00 Build 0)  -->
<svg version="1.2" baseProfile="tiny" id="Layer_1" xmlns="http://www.w3.org/2000/svg" xmlns:xlink="http://www.w3.org/1999/xlink"
	 x="0px" y="0px" width="100px" height="100px" viewBox="0 0 100 100" overflow="inherit" xml:space="preserve">
<path d="M50,0C22.386,0,0,22.386,0,50c0,27.613,22.386,50,50,50s50-22.387,50-50C100,22.386,77.614,0,50,0z M77.5,52.5h-25v25
	c0,1.381-1.119,2.5-2.5,2.5s-2.5-1.119-2.5-2.5v-25h-25c-1.381,0-2.5-1.119-2.5-2.5s1.119-2.5,2.5-2.5h25v-25
	c0-1.381,1.119-2.5,2.5-2.5s2.5,1.119,2.5,2.5v25h25c1.381,0,2.5,1.119,2.5,2.5S78.881,52.5,77.5,52.5z"/>
</svg>
