<?xml version="1.0" encoding="utf-8"?>
<!-- Generator: Adobe Illustrator 15.1.0, SVG Export Plug-In . SVG Version: 6.00 Build 0)  -->
<svg version="1.2" baseProfile="tiny" id="Layer_1" xmlns="http://www.w3.org/2000/svg" xmlns:xlink="http://www.w3.org/1999/xlink"
	 x="0px" y="0px" width="38px" height="38px" viewBox="0 0 38 38" overflow="inherit" xml:space="preserve">
<g id="remove_x5F_2_2_">
	<path d="M25.732,19.002L37.65,7.083c0.467-0.468,0.467-1.235,0-1.7l-5.027-5.029c-0.465-0.465-1.23-0.465-1.697,0L19.005,12.276
		L7.077,0.348c-0.468-0.464-1.233-0.464-1.699,0L0.351,5.379c-0.467,0.463-0.467,1.228,0,1.7l11.927,11.925L0.355,30.928
		c-0.464,0.463-0.464,1.23,0,1.696l5.028,5.029c0.468,0.463,1.236,0.463,1.7,0l11.92-11.921l11.913,11.915
		c0.467,0.464,1.234,0.464,1.701,0l5.029-5.031c0.463-0.463,0.463-1.23,0-1.7L25.732,19.002z"/>
</g>
</svg>
